<?xml version="1.0" encoding="UTF-8"?>
<svg xmlns="http://www.w3.org/2000/svg" id="Layer_1" data-name="Layer 1" viewBox="0 0 24 24">
    <path d="m24,12c0,.534-.208,1.037-.586,1.414l-4.565,4.444-.697-.717,4.561-4.439c.058-.058.093-.132.135-.202H6v-1h16.846c-.042-.071-.078-.147-.139-.207l-4.556-4.435.697-.717,4.561,4.439c.383.382.591.885.591,1.419Zm-13,9.5c0,.827-.673,1.5-1.5,1.5H2.5c-.827,0-1.5-.673-1.5-1.5V2.5c0-.827.673-1.5,1.5-1.5h7c.827,0,1.5.673,1.5,1.5v6.5h1V2.5c0-1.378-1.122-2.5-2.5-2.5H2.5C1.122,0,0,1.122,0,2.5v19c0,1.379,1.122,2.5,2.5,2.5h7c1.378,0,2.5-1.121,2.5-2.5v-6.5h-1v6.5Z"/>
</svg>
